#!OML:ASF X:\für Bonn\!DataBase\2005_08_11_Bastian_Final\c3d\Bastian.ASF
:FULLY-SPECIFIED
:DEGREES
93
root 24.2957 17.2281 -2.64529 360.62 -73.919 -10.395
lowerback 41.552 -2.52223 16.3275
upperback 19.2073 0.250088 4.94855
thorax 2.5279 0.000724248 -2.94974
lowerneck -1.28057 -9.23095 -2.22856
upperneck -2.73161 -12.1809 8.39635
head 0.0606409 -6.12819 2.91515
rclavicle -6.04305e-014 -2.38542e-014
rhumerus 22.9405 12.144 -60.4866
rradius 20.9148
rwrist -0.0843348
rhand -23.9952 -2.65024
rfingers 7.12502
rthumb 2.48196 -32.6155
lclavicle -6.04305e-014 -2.38542e-014
lhumerus -10.6902 -20.9106 89.7605
lradius 35.7296
lwrist 18.6566
lhand -12.8781 -9.08616
lfingers 7.12502
lthumb 13.2107 20.4753
rfemur -16.1565 -6.02321 25.4845
rtibia 38.222
rfoot -5.20565 -5.36962
rtoes 3.4084
lfemur -17.1473 4.59717 -17.4188
ltibia 32.6317
lfoot -5.72315 -6.66565
ltoes -17.9035
94
root 24.2936 17.2187 -2.64517 360.796 -73.9764 -10.3291
lowerback 42.2048 -2.62174 16.6525
upperback 19.3975 0.281234 4.99376
thorax 2.61326 0.0231604 -3.04075
lowerneck -1.47959 -9.27988 -2.23053
upperneck -3.36766 -12.2172 8.48758
head -0.0986622 -6.16335 2.95425
rclavicle 5.24792e-014 0
rhumerus 24.026 11.7805 -59.7596
rradius 20.807
rwrist -0.181268
rhand -23.9811 -2.78679
rfingers 7.12502
rthumb 2.49564 -32.7519
lclavicle 5.24792e-014 0
lhumerus -10.3057 -21.1371 89.672
lradius 36.5977
lwrist 18.5404
lhand -13 -9.1937
lfingers 7.12502
lthumb 13.0932 20.3753
rfemur -16.5728 -6.198 25.4883
rtibia 38.4943
rfoot -5.28465 -5.1502
rtoes 3.65615
lfemur -17.4979 4.53773 -17.5253
ltibia 32.326
lfoot -5.48944 -6.30189
ltoes -17.2774
95
root 24.2926 17.2109 -2.64391 360.943 -74.0633 -10.1812
lowerback 42.8649 -2.70893 16.9551
upperback 19.5462 0.335912 5.02319
thorax 2.65471 0.0554164 -3.14418
lowerneck -1.60258 -9.31735 -2.25364
upperneck -4.01126 -12.2371 8.6299
head -0.269577 -6.19259 3.01948
rclavicle -2.70347e-014 4.6118e-014
rhumerus 25.0705 11.3023 -59.1379
rradius 20.6167
rwrist -0.132563
rhand -23.9696 -2.85886
rfingers 7.12502
rthumb 2.50673 -32.8239
lclavicle -2.70347e-014 4.6118e-014
lhumerus -9.99577 -21.3618 89.6062
lradius 37.4747
lwrist 18.4201
lhand -13.1802 -9.34854
lfingers 7.12502
lthumb 12.9195 20.2315
rfemur -17.0606 -6.36789 25.4747
rtibia 38.7653
rfoot -5.31966 -4.90997
rtoes 3.76519
lfemur -17.8956 4.49696 -17.6557
ltibia 32.0515
lfoot -5.22951 -5.94106
ltoes -16.7735
96
root 24.293 17.2038 -2.6421 361.173 -74.1855 -10.1072
lowerback 44.4832 -3.06938 17.487
upperback 18.8621 0.500206 4.6634
thorax 2.53066 0.093188 -3.27751
lowerneck -1.64163 -9.34924 -2.17639
upperneck -4.67872 -12.2502 8.68898
head -0.475328 -6.22189 3.04806
rclavicle 4.6118e-014 3.33958e-014
rhumerus 26.0789 10.8955 -58.5498
rradius 20.4554
rwrist -0.161096
rhand -23.9714 -2.98532
rfingers 7.12502
rthumb 2.50496 -32.9504
lclavicle 4.6118e-014 3.33958e-014
lhumerus -9.72403 -21.7091 89.4574
lradius 38.405
lwrist 18.4897
lhand -13.2906 -9.51169
lfingers 7.12502
lthumb 12.8131 20.0751
rfemur -17.5507 -6.47652 25.4792
rtibia 39.0242
rfoot -5.38232 -4.67412
rtoes 3.83331
lfemur -18.3021 4.45009 -17.7626
ltibia 31.8116
lfoot -4.92994 -5.57654
ltoes -16.8424
97
root 24.2957 17.1969 -2.63979 361.286 -74.3199 -9.8988
lowerback 45.2595 -3.18857 17.7569
upperback 18.9287 0.555769 4.63183
thorax 2.51567 0.11915 -3.39857
lowerneck -1.72541 -9.37023 -2.17764
upperneck -5.30724 -12.2505 8.7982
head -0.653878 -6.24313 3.10343
rclavicle -6.99722e-014 -3.33958e-014
rhumerus 27.1002 10.4866 -57.9656
rradius 20.2775
rwrist -0.141401
rhand -23.9512 -3.10218
rfingers 7.12502
rthumb 2.52454 -33.067
lclavicle -6.99722e-014 -3.33958e-014
lhumerus -9.45644 -21.9867 89.3192
lradius 39.3319
lwrist 18.6004
lhand -13.4122 -9.6238
lfingers 7.12502
lthumb 12.6959 19.9703
rfemur -18.0643 -6.55242 25.4445
rtibia 39.2772
rfoot -5.40861 -4.48031
rtoes 4.05643
lfemur -18.7048 4.36596 -17.8986
ltibia 31.5949
lfoot -4.62129 -5.20149
ltoes -16.9398
98
root 24.2978 17.191 -2.63659 361.342 -74.4882 -9.60363
lowerback 46.0741 -3.29353 17.9702
upperback 18.9455 0.629753 4.60535
thorax 2.44051 0.144938 -3.49256
lowerneck -1.77115 -9.38507 -2.21555
upperneck -5.87618 -12.2467 8.86193
head -0.821524 -6.26014 3.15116
rclavicle 1.27222e-014 -1.74931e-014
rhumerus 28.0508 10.3029 -57.2406
rradius 20.1842
rwrist -0.362724
rhand -24.0191 -3.27112
rfingers 7.12502
rthumb 2.45892 -33.2367
lclavicle 1.27222e-014 -1.74931e-014
lhumerus -9.23495 -22.1715 89.2096
lradius 40.2237
lwrist 18.7947
lhand -13.4583 -9.82999
lfingers 7.12502
lthumb 12.6514 19.7668
rfemur -18.6009 -6.60408 25.3856
rtibia 39.5269
rfoot -5.43305 -4.24779
rtoes 4.09262
lfemur -19.1171 4.26704 -18.0544
ltibia 31.3932
lfoot -4.27563 -4.80307
ltoes -17.2972
99
root 24.3021 17.1854 -2.63351 361.353 -74.6686 -9.2326
lowerback 46.8961 -3.39842 18.1622
upperback 18.9463 0.704034 4.55597
thorax 2.35143 0.170973 -3.60093
lowerneck -1.81775 -9.41432 -2.20518
upperneck -6.42205 -12.2654 8.88891
head -0.986429 -6.28839 3.17831
rclavicle -4.45278e-014 -5.08889e-014
rhumerus 29.0045 10.1234 -56.5421
rradius 20.1013
rwrist -0.709512
rhand -24.0563 -3.46484
rfingers 7.12502
rthumb 2.42302 -33.4308
lclavicle -4.45278e-014 -5.08889e-014
lhumerus -9.0143 -22.473 89.0519
lradius 41.1001
lwrist 19.1358
lhand -13.5732 -10.0171
lfingers 7.12502
lthumb 12.5406 19.5865
rfemur -19.1939 -6.66918 25.3181
rtibia 39.7818
rfoot -5.43358 -4.00642
rtoes 4.20039
lfemur -19.5535 4.14529 -18.2198
ltibia 31.2014
lfoot -3.83736 -4.39472
ltoes -17.8433
100
root 24.3064 17.1805 -2.62953 361.424 -74.8449 -8.86237
lowerback 47.6785 -3.50409 18.3662
upperback 18.9171 0.788181 4.49321
thorax 2.24454 0.20465 -3.7328
lowerneck -1.79586 -9.44358 -2.18007
upperneck -6.99805 -12.2823 8.93027
head -1.17361 -6.31851 3.21441
rclavicle -4.13472e-014 -4.29375e-014
rhumerus 29.8851 9.80086 -55.9739
rradius 19.9616
rwrist -0.898147
rhand -24.1445 -3.53609
rfingers 7.12502
rthumb 2.33779 -33.503
lclavicle -4.13472e-014 -4.29375e-014
lhumerus -8.84917 -22.8031 88.8738
lradius 41.9653
lwrist 19.4487
lhand -13.6825 -10.1859
lfingers 7.12502
lthumb 12.4352 19.4242
rfemur -19.8543 -6.75863 25.2527
rtibia 40.0468
rfoot -5.45729 -3.72052
rtoes 4.2848
lfemur -20.0403 4.02879 -18.3917
ltibia 31.0078
lfoot -3.35324 -3.99405
ltoes -18.389
101
root 24.3112 17.1749 -2.62473 361.53 -75.03 -8.47308
lowerback 48.4558 -3.61712 18.5596
upperback 18.8579 0.869825 4.4107
thorax 2.11001 0.236945 -3.88008
lowerneck -1.82615 -9.46379 -2.1168
upperneck -7.50508 -12.2944 8.90412
head -1.33739 -6.34325 3.21682
rclavicle -1.27222e-014 -1.27222e-014
rhumerus 30.7399 9.62178 -55.3231
rradius 19.9016
rwrist -1.35209
rhand -24.2167 -3.67845
rfingers 7.12502
rthumb 2.2681 -33.6461
lclavicle -1.27222e-014 -1.27222e-014
lhumerus -8.65369 -23.1026 88.6964
lradius 42.6464
lwrist 19.6907
lhand -13.8975 -10.4081
lfingers 7.12502
lthumb 12.2279 19.2144
rfemur -20.5821 -6.84012 25.1918
rtibia 40.3286
rfoot -5.47332 -3.44243
rtoes 4.4566
lfemur -20.5702 3.92645 -18.5618
ltibia 30.825
lfoot -2.73268 -3.63963
ltoes -18.2841
102
root 24.3162 17.1693 -2.61972 361.543 -75.2582 -7.9746
lowerback 49.2622 -3.70042 18.7008
upperback 18.7667 0.980735 4.31998
thorax 1.93837 0.277849 -4.02262
lowerneck -1.72736 -9.48421 -2.08426
upperneck -8.06507 -12.3008 8.94214
head -1.53585 -6.36906 3.25725
rclavicle -3.49861e-014 -1.59028e-015
rhumerus 31.5596 9.30794 -54.8009
rradius 19.7513
rwrist -1.62591
rhand -24.3482 -3.73402
rfingers 7.12502
rthumb 2.14103 -33.703
lclavicle -3.49861e-014 -1.59028e-015
lhumerus -8.4705 -23.4597 88.519
lradius 43.1854
lwrist 19.976
lhand -14.0925 -10.6634
lfingers 7.12502
lthumb 12.0399 18.9703
rfemur -21.3467 -6.9206 25.1026
rtibia 40.6311
rfoot -5.49744 -3.11123
rtoes 4.52306
lfemur -21.093 3.7709 -18.743
ltibia 30.6419
lfoot -1.961 -3.21655
ltoes -17.3832
103
root 24.3234 17.1623 -2.61331 361.615 -75.5164 -7.46622
lowerback 50.0614 -3.76795 18.8068
upperback 18.622 1.11077 4.2166
thorax 1.71099 0.323542 -4.17123
lowerneck -1.5692 -9.49212 -1.99684
upperneck -8.61207 -12.2937 8.9157
head -1.7501 -6.38846 3.27241
rclavicle -6.36111e-015 -5.56597e-014
rhumerus 32.299 9.16034 -54.1819
rradius 19.6877
rwrist -2.10233
rhand -24.4529 -3.78064
rfingers 7.12502
rthumb 2.03993 -33.7506
lclavicle -6.36111e-015 -5.56597e-014
lhumerus -8.37051 -23.7382 88.3721
lradius 43.6772
lwrist 20.1993
lhand -14.2519 -10.8176
lfingers 7.12502
lthumb 11.8862 18.8251
rfemur -22.2149 -7.02683 25.0254
rtibia 40.9528
rfoot -5.51141 -2.75049
rtoes 4.69146
lfemur -21.6858 3.65577 -18.9326
ltibia 30.4628
lfoot -1.13233 -2.81625
ltoes -16.0526
